<svg xmlns="http://www.w3.org/2000/svg" width="13" height="13" viewBox="0 0 13 13" fill="none"><path fill-rule="evenodd" clip-rule="evenodd" d="M7.78 2.19C8.47 2.39 9.09 2.75 9.59 3.23L11.2 2.63L12.2 4.37L10.88 5.45C10.96 5.79 11 6.14 11 6.5C11 6.86 10.96 7.21 10.88 7.55L12.2 8.63L11.2 10.37L9.59 9.76C9.09 10.25 8.47 10.61 7.78 10.81L7.5 12.5H5.5L5.22 10.81C4.53 10.61 3.91 10.25 3.41 9.76L1.8 10.37L0.8 8.63L2.12 7.55C2.04 7.21 2 6.86 2 6.5C2 6.14 2.04 5.79 2.12 5.45L0.8 4.37L1.8 2.63L3.41 3.23C3.91 2.75 4.53 2.39 5.22 2.19L5.5 0.5H7.5L7.78 2.19ZM6.5 4.5C5.4 4.5 4.5 5.4 4.5 6.5C4.5 7.6 5.4 8.5 6.5 8.5C7.6 8.5 8.5 7.6 8.5 6.5C8.5 5.4 7.6 4.5 6.5 4.5Z" fill="currentColor" fill-opacity="0.15" stroke="currentColor" stroke-width="1" stroke-linecap="round" stroke-linejoin="round"></path></svg>