<svg xmlns="http://www.w3.org/2000/svg" width="13" height="13" viewBox="0 0 13 13" fill="none"><path stroke="currentColor" stroke-width="1" fill="none" stroke-linejoin="round" d="M3.124 5.004 4 1.5l.876 3.504a1 1 0 0 0 .5987.6859L7.5 6.5l-2.0253.8101a1 1 0 0 0-.5987.686L4 11.5l-.876-3.504a1 1 0 0 0-.5987-.6859L.5 6.5l2.0253-.8101a1 1 0 0 0 .5987-.686ZM9.6455 1.918 10 .5l.3545 1.418a.9998.9998 0 0 0 .7276.7275L12.5 3l-1.4179.3545a1 1 0 0 0-.7276.7276L10 5.5l-.3545-1.418a1 1 0 0 0-.7276-.7275L7.5 3l1.418-.3545a1 1 0 0 0 .7275-.7276Z"></path></svg>